<svg xmlns:xlink="http://www.w3.org/1999/xlink" xmlns="http://www.w3.org/2000/svg" width="42" height="42" fill="none"><g fill="#F1E478"><path d="M33.305 2.543H23.46c-4.749 0-8.613 3.864-8.613 8.613 0 4.332 3.214 7.927 7.382 8.526v3.779a1.229 1.229 0 0 0 2.101.87l4.561-4.561h4.413c4.749 0 8.695-3.865 8.695-8.614 0-4.749-3.946-8.613-8.695-8.613zm-9.844 9.844a1.23 1.23 0 1 1 0-2.461 1.23 1.23 0 0 1 0 2.46zm4.922 0a1.23 1.23 0 1 1 0-2.461 1.23 1.23 0 0 1 0 2.46zm4.922 0a1.23 1.23 0 1 1 0-2.461 1.23 1.23 0 0 1 0 2.46z"/><path d="M27.645 39.457a3.695 3.695 0 0 0 3.69-3.691v-4.922c0-.53-.338-1-.84-1.167l-7.366-2.461a1.232 1.232 0 0 0-1.072.143l-3.131 2.087c-3.316-1.581-7.252-5.517-8.833-8.833l2.087-3.131c.21-.317.263-.712.143-1.072L9.862 9.044a1.229 1.229 0 0 0-1.167-.84H3.691A3.68 3.68 0 0 0 0 11.876c0 14.177 13.468 27.58 27.645 27.58z"/></g></svg>