<svg xmlns="http://www.w3.org/2000/svg" xmlns:xlink="http://www.w3.org/1999/xlink" style="width: 100%; height: 100%" viewBox="0 0 764 673" preserveAspectRatio="none" width="804" height="708"><defs><svg width="764" height="673" viewBox="0 0 764 673" fill="none" xmlns="http://www.w3.org/2000/svg" id="svg-1022674435_1667">
<mask id="svg-1022674435_1667_mask0_795_7492" style="mask-type:alpha" maskUnits="userSpaceOnUse" x="0" y="0" width="764" height="673" fill="none">
<rect width="764" height="673" fill="#D9D9D9"></rect>
</mask>
<g mask="url(#svg-1022674435_1667_mask0_795_7492)" fill="none">
<path d="M669.394 167.556C673.301 165.225 678.368 166.499 680.6 170.463C715.194 231.901 729.204 302.891 720.441 372.998C711.338 445.832 678.176 513.541 626.217 565.387C574.257 617.232 506.475 650.244 433.621 659.187C360.767 668.13 287.012 652.491 224.056 614.752C161.1 577.013 112.547 519.334 86.0987 450.863C59.6501 382.393 56.8202 307.052 78.0579 236.791C99.2955 166.529 143.385 105.371 203.332 63.0149C261.035 22.2457 330.249 1.14455 400.739 2.69994C405.288 2.80031 408.799 6.66869 408.585 11.2133C408.371 15.7578 404.513 19.2571 399.964 19.1627C333.141 17.7762 267.544 37.8194 212.839 76.4707C155.889 116.709 114.004 174.809 93.8287 241.558C73.6529 308.306 76.3413 379.88 101.468 444.927C126.594 509.973 172.719 564.769 232.527 600.621C292.335 636.473 362.402 651.33 431.613 642.834C500.825 634.338 565.218 602.977 614.58 553.724C663.941 504.471 695.445 440.147 704.093 370.954C712.4 304.49 699.162 237.189 666.446 178.906C664.219 174.939 665.486 169.886 669.394 167.556Z" fill="url(&quot;#svg-1022674435_1667_paint0_linear_795_7492&quot;)"></path>
</g>
<defs>
<linearGradient id="svg-1022674435_1667_paint0_linear_795_7492" x1="586.029" y1="158.006" x2="235.515" y2="628.461" gradientUnits="userSpaceOnUse">
<stop stop-color="#F1E478" stop-opacity="0"></stop>
<stop offset="0.9998" stop-color="#F1E478"></stop>
<stop offset="0.9999" stop-color="#F1E478"></stop>
<stop offset="1" stop-color="#F1E478"></stop>
</linearGradient>
<linearGradient id="svg-1022674435_1667_paint0_linear_795_7492" x1="586.029" y1="158.006" x2="235.515" y2="628.461" gradientUnits="userSpaceOnUse">
<stop stop-color="#F1E478" stop-opacity="0"></stop>
<stop offset="0.9998" stop-color="#F1E478"></stop>
<stop offset="0.9999" stop-color="#F1E478"></stop>
<stop offset="1" stop-color="#F1E478"></stop>
</linearGradient><linearGradient id="svg-1022674435_1667_paint0_linear_795_7492" x1="586.029" y1="158.006" x2="235.515" y2="628.461" gradientUnits="userSpaceOnUse">
<stop stop-color="#F1E478" stop-opacity="0"></stop>
<stop offset="0.9998" stop-color="#F1E478"></stop>
<stop offset="0.9999" stop-color="#F1E478"></stop>
<stop offset="1" stop-color="#F1E478"></stop>
</linearGradient></defs>
</svg></defs><use href="#svg-1022674435_1667"></use></svg>