<svg xmlns:xlink="http://www.w3.org/1999/xlink" xmlns="http://www.w3.org/2000/svg" width="41" height="40" fill="none"><g fill="#F1E478" clip-path="url(#a)"><path d="m7.378 24.454 8.756-8.756 2.092 2.094a5.178 5.178 0 0 0 3.695 1.537c1.397 0 2.71-.546 3.696-1.538a5.254 5.254 0 0 0 0-7.395l-3.28-3.288 1.63-1.433c4.097-3.59 10.33-3.18 13.92.918 3.592 4.098 3.18 10.33-.917 13.921l-2.34 2.163-2.599-2.598a3.882 3.882 0 0 0-5.483 0 3.85 3.85 0 0 0-1.134 2.694 3.864 3.864 0 0 0-3.824 3.825c-.977.012-1.95.39-2.694 1.133a3.882 3.882 0 0 0 0 5.483l2.081 2.081-1.76 1.627a2.89 2.89 0 1 1-3.81-4.348 2.89 2.89 0 1 1-3.81-4.348 2.89 2.89 0 0 1-4.08-.27c-.9-1.028-.849-2.327-.139-3.502z"/><path d="M3.223 5.25c3.853-3.852 10.099-3.852 13.951 0l6.781 6.8a2.93 2.93 0 0 1 .632 3.13 2.901 2.901 0 0 1-2.905 1.795 2.889 2.889 0 0 1-1.814-.855l-3.733-3.737-9.866 9.866-3.046-3.047C-.63 15.35-.63 9.103 3.223 5.251zm28.325 21.998-3.342-3.343c-.29-.29-.45-.674-.45-1.084 0-.41.16-.794.45-1.084a1.529 1.529 0 0 1 1.084-.448c.393 0 .785.149 1.084.448l3.343 3.343c.595.595.597 1.563.006 2.161l-.03.028a1.522 1.522 0 0 1-1.06.428c-.41 0-.795-.16-1.085-.449zm-3.826 3.826-3.343-3.343a1.523 1.523 0 0 1-.449-1.084c0-.41.16-.794.45-1.084a1.52 1.52 0 0 1 1.084-.45c.41 0 .794.16 1.084.45l3.343 3.343c.29.29.449.674.449 1.084 0 .407-.158.79-.445 1.08l-.019.017c-.6.584-1.56.58-2.154-.013zM23.896 34.9l-3.343-3.343a1.535 1.535 0 0 1 1.085-2.617c.41 0 .794.159 1.084.449l3.343 3.342c.29.29.449.675.449 1.085 0 .408-.159.792-.447 1.081l-.01.01a1.534 1.534 0 0 1-2.16-.007z"/></g><defs><clipPath id="a"><path fill="#fff" d="M.333 0h40v40h-40z"/></clipPath></defs></svg>