<svg xmlns:xlink="http://www.w3.org/1999/xlink" xmlns="http://www.w3.org/2000/svg" width="37" height="36" fill="none"><g clip-path="url(#a)"><path fill="#F1E478" d="m34.754 12.504 1.145-1.144a2.609 2.609 0 0 0 .767-1.856c0-.702-.272-1.36-.769-1.855l-2.379-2.38 1.209-1.208a1.498 1.498 0 0 0 0-2.121 1.498 1.498 0 0 0-2.121 0l-1.209 1.209L29.02.77c-.992-.991-2.72-.993-3.713 0l-1.144 1.145-.393-.393c-.99-.992-2.72-.993-3.713 0l-.879.879a2.63 2.63 0 0 0 0 3.712l4.629 4.629-12.402 12.402-4.629-4.635a2.63 2.63 0 0 0-3.711 0l-.879.879a2.61 2.61 0 0 0-.77 1.857c0 .702.274 1.36.77 1.856l.394.394-1.144 1.145a2.604 2.604 0 0 0-.77 1.855c0 .702.274 1.36.77 1.856l2.379 2.378-1.209 1.21a1.498 1.498 0 0 0 1.06 2.56c.385 0 .768-.147 1.061-.44l1.209-1.209 2.377 2.378A2.602 2.602 0 0 0 10.17 36c.701 0 1.361-.273 1.856-.77l1.145-1.144.393.393c.496.496 1.155.77 1.857.77.7 0 1.36-.274 1.855-.77l.879-.879a2.63 2.63 0 0 0 0-3.713l-4.629-4.628 12.402-12.402 4.629 4.628a2.615 2.615 0 0 0 1.856.767c.672 0 1.344-.256 1.855-.768l.879-.879c.497-.497.77-1.155.77-1.856 0-.702-.273-1.36-.77-1.855l-.393-.39z"/></g><defs><clipPath id="a"><path fill="#fff" d="M.667 0h36v36h-36z"/></clipPath></defs></svg>