<svg xmlns:xlink="http://www.w3.org/1999/xlink" xmlns="http://www.w3.org/2000/svg" width="42" height="42" fill="none"><path fill="#F1E478" d="m27.213 22.743-3.517 3.53c-1.427 1.431-3.937 1.462-5.394 0l-3.518-3.53L2.15 35.418c.47.218.99.348 1.54.348h34.618c.55 0 1.07-.13 1.54-.348L27.212 22.743z"/><path fill="#F1E478" d="M38.31 6.234H3.691c-.551 0-1.07.13-1.54.348l13.5 13.545c.002 0 .003 0 .004.002v.002l4.39 4.404c.467.466 1.443.466 1.91 0l4.388-4.403.002-.003.003-.002 13.5-13.545a3.651 3.651 0 0 0-1.54-.348zM.393 8.302A3.646 3.646 0 0 0 0 9.926v22.148c0 .585.15 1.131.393 1.623L13.049 21 .393 8.302zm41.214 0L28.951 21l12.656 12.697A3.646 3.646 0 0 0 42 32.075V9.926a3.65 3.65 0 0 0-.393-1.624z"/></svg>