<svg xmlns:xlink="http://www.w3.org/1999/xlink" xmlns="http://www.w3.org/2000/svg" width="42" height="42" fill="none"><path fill="#F1E478" d="M21 0C13.62 0 7.465 5.945 7.465 13.535c0 2.888.868 5.463 2.533 7.876l9.966 15.551a1.23 1.23 0 0 0 2.072 0l10.01-15.604a13.475 13.475 0 0 0 2.49-7.823C34.535 6.072 28.462 0 21 0zm0 19.688a6.16 6.16 0 0 1-6.152-6.153A6.16 6.16 0 0 1 21 7.383a6.16 6.16 0 0 1 6.152 6.152A6.16 6.16 0 0 1 21 19.687z"/><path fill="#F1E478" d="m30.62 28.276-6.197 9.687c-1.603 2.5-5.252 2.492-6.848.002l-6.206-9.687c-5.46 1.263-8.826 3.576-8.826 6.34C2.543 39.412 12.053 42 21 42c8.947 0 18.457-2.587 18.457-7.383 0-2.765-3.37-5.08-8.838-6.341z"/></svg>