<svg xmlns:xlink="http://www.w3.org/1999/xlink" xmlns="http://www.w3.org/2000/svg" width="37" height="36" fill="none"><g clip-path="url(#a)"><path fill="#F1E478" d="M35.957 9.934c-.6-2.351-1.877-4.379-3.696-5.863-1.77-1.446-3.94-2.243-6.11-2.243-1.662 0-3.248.448-4.713 1.33-1.157.698-2.198 1.646-3.108 2.83-2.067-2.695-4.798-4.16-7.817-4.16-2.168 0-4.337.797-6.108 2.243C2.587 5.555 1.31 7.582.71 9.934c-.44 1.724-.64 4.145.228 7.056h5.448l1.967-3.935a1.055 1.055 0 0 1 1.887 0l3.575 7.15 3.575-7.15a1.054 1.054 0 0 1 1.886 0l1.967 3.934h7.346a1.054 1.054 0 1 1 0 2.11h-7.997c-.4 0-.765-.226-.944-.584l-1.315-2.631-3.575 7.15a1.055 1.055 0 0 1-1.886 0l-3.575-7.15-1.316 2.632a1.055 1.055 0 0 1-.943.583h-5.31c.352.781.783 1.59 1.306 2.424 2.87 4.578 7.847 8.82 14.791 12.608a1.053 1.053 0 0 0 1.01 0c6.946-3.788 11.924-8.03 14.796-12.608 3.103-4.946 2.978-9.032 2.326-11.589z"/></g><defs><clipPath id="a"><path fill="#fff" d="M.333 0h36v36h-36z"/></clipPath></defs></svg>