<svg xmlns:xlink="http://www.w3.org/1999/xlink" xmlns="http://www.w3.org/2000/svg" width="36" height="36" fill="none"><g fill="#F1E478"><path d="M31.543 24.735a2.348 2.348 0 0 0-2.348 2.349v3.66H6.805v-3.66a2.348 2.348 0 0 0-4.696 0v6.008a2.348 2.348 0 0 0 2.349 2.348h27.085a2.348 2.348 0 0 0 2.348-2.348v-6.008a2.348 2.348 0 0 0-2.348-2.349z"/><path d="M17.292 27.234c.39.39 1.026.39 1.417 0l8.23-8.23a.839.839 0 0 0-.594-1.43h-3.864V2.391c0-1.013-.82-1.832-1.832-1.832h-5.296c-1.012 0-1.832.82-1.832 1.832v15.181H9.655a.837.837 0 0 0-.593 1.431l8.23 8.23z"/></g></svg>