<svg xmlns:xlink="http://www.w3.org/1999/xlink" xmlns="http://www.w3.org/2000/svg" width="41" height="40" fill="none"><g fill="#F1E478" clip-path="url(#a)"><path d="M17.15 40v-3.594a4.692 4.692 0 0 1-4.687-4.687 4.692 4.692 0 0 1 4.687-4.688v-3.515H10.6l.557-1.566a2.347 2.347 0 0 0-2.21-3.122 2.347 2.347 0 0 0-2.21 3.122l.558 1.566H.666C1.248 32.273 8.393 39.419 17.15 40z"/><path d="M8.947 16.485a4.692 4.692 0 0 1 4.688 4.687h3.515v-6.55l1.566.557c1.443.514 3.12-.651 3.122-2.21-.001-1.56-1.678-2.734-3.122-2.21l-1.566.557v-6.49C8.393 5.405 1.248 12.414.666 21.171H4.26a4.692 4.692 0 0 1 4.687-4.687zm26.894 7.031h-3.456a4.692 4.692 0 0 1-4.688 4.687 4.692 4.692 0 0 1-4.687-4.687h-3.516v6.55l-1.565-.557c-1.45-.52-3.123.65-3.122 2.21-.002 1.56 1.674 2.73 3.122 2.21l1.565-.558V40c8.757-.581 15.766-7.727 16.347-16.484z"/><path d="M35.9 9.453V4.766h-4.687C31.213 2.18 29.11 0 26.525 0c-2.585 0-4.687 2.18-4.687 4.766h-2.344V8.28a4.692 4.692 0 0 1 4.688 4.688 4.692 4.692 0 0 1-4.688 4.687v3.516h6.55l-.557 1.565a2.347 2.347 0 0 0 2.21 3.122 2.347 2.347 0 0 0 2.21-3.122l-.557-1.565h6.55v-2.344c2.586 0 4.766-2.102 4.766-4.687 0-2.586-2.18-4.688-4.766-4.688z"/></g><defs><clipPath id="a"><path fill="#fff" d="M.666 0h40v40h-40z"/></clipPath></defs></svg>