<svg xmlns:xlink="http://www.w3.org/1999/xlink" xmlns="http://www.w3.org/2000/svg" width="36" height="36" fill="none"><g fill="#F1E478" clip-path="url(#a)"><path d="M17.529 30.445h-5.857v-2.11h5.306a14.471 14.471 0 0 1-.206-2.108h-5.1v-2.11h5.32c.196-.738.514-1.46.94-2.126h-6.26v-2.11h6.343v1.983c.193-.29.408-.57.64-.834a7.115 7.115 0 0 1 2.107-1.649 6.074 6.074 0 0 1 2.776-.678c.677 0 1.318.085 1.915.25V6.449h-4.219v4.965H4.36V6.449H.141V36h21.14c-1.102-1.1-2.782-2.821-3.752-5.555zm-5.857-14.792h6.343v2.11h-6.343v-2.11zm-2.11 14.792H7.454v-2.11h2.11v2.11zm0-4.218H7.454v-2.11h2.11v2.11zm0-4.196H7.454v-2.11h2.11v2.11zm0-4.268H7.454v-2.11h2.11v2.11z"/><path d="M19.125 6.449v-2.08H16.13v-.99A3.36 3.36 0 0 0 15.14.99 3.358 3.358 0 0 0 12.75 0a3.384 3.384 0 0 0-3.38 3.38v.99H6.469v4.934h12.656V6.45zm-5.105-2.08h-2.54v-.99a1.272 1.272 0 0 1 2.168-.897c.24.24.372.559.372.898v.99zm20.317 17.792a4.528 4.528 0 0 0-3.212-1.349h-.01a4.95 4.95 0 0 0-2.662.777v-.332c0-1.214.989-2.202 2.203-2.202v-2.11a4.317 4.317 0 0 0-4.312 4.312v.332a4.94 4.94 0 0 0-.891-.449v-.005c-.548-.237-1.192-.323-1.915-.323-2.585 0-4.663 2.637-4.663 4.997 0 5.152 2.821 7.603 4.285 9.088.602.61 1.31 1.103 2.162 1.103a.95.95 0 0 0 .131-.01v-.006l.037.001c.019-.003.038-.005.056-.009v.01c.24-.001.482-.048.719-.138a2.907 2.907 0 0 1 2.022-.032c.314.113.642.17.976.17.948 0 1.847-.44 2.6-1.275.159-.175.333-.36.517-.553 1.492-1.573 3.534-3.727 3.534-7.972 0-1.58-.56-3.01-1.577-4.025z"/></g><defs><clipPath id="a"><path fill="#fff" d="M0 0h36v36H0z"/></clipPath></defs></svg>