<svg xmlns:xlink="http://www.w3.org/1999/xlink" xmlns="http://www.w3.org/2000/svg" width="41" height="40" fill="none"><g fill="#F1E478" clip-path="url(#a)"><path d="M2.337 14.355v17.54h12.317a21.02 21.02 0 0 1-.029-1.236 3.522 3.522 0 0 1 3.512-3.501h.032c.448.005.895.026 1.329.066 3.566.324 5.566 1.751 6.615 2.89.65.704 1.15 1.515 1.536 2.381a8.934 8.934 0 0 1 1.172-1.955V14.356H2.337zm18.762 7.522H10.06a1.172 1.172 0 1 1 0-2.343H21.1a1.172 1.172 0 0 1 0 2.343zM17.939 40H6.159a3.827 3.827 0 0 1-3.822-3.822v-1.94H14.93c.491 2.587 1.494 4.193 2.378 5.152.202.219.413.422.63.61zm5.375-35.662H7.844V1.172A1.174 1.174 0 0 1 9.018 0h13.125c.647 0 1.172.525 1.172 1.172v3.166zm5.416 7.674H2.429a6.897 6.897 0 0 1 4.389-5.33h17.526a6.898 6.898 0 0 1 4.388 5.33z"/><path d="M26.417 39.965c-1.677.114-5.327.07-7.384-2.163-1.762-1.913-2.074-5.07-2.064-7.132a1.17 1.17 0 0 1 1.179-1.168c.352.003.736.02 1.139.056 2.821.256 4.332 1.307 5.103 2.145 2.132 2.313 2.14 6.446 2.027 8.262zm9.85-2.163c-2.058 2.234-5.709 2.278-7.383 2.164-.114-1.818-.106-5.95 2.026-8.263 1.665-1.808 4.375-2.182 6.235-2.198a1.173 1.173 0 0 1 1.187 1.168c.009 2.063-.303 5.217-2.065 7.13z"/></g><defs><clipPath id="a"><path fill="#fff" d="M.334 0h40v40h-40z"/></clipPath></defs></svg>