<svg xmlns:xlink="http://www.w3.org/1999/xlink" xmlns="http://www.w3.org/2000/svg" width="40" height="40" fill="none"><g fill="#F1E478"><path d="m39.054 15.648-2.928-.583a16.636 16.636 0 0 0-1.274-3.067l1.656-2.475a1.168 1.168 0 0 0-.148-1.478l-4.436-4.42a1.18 1.18 0 0 0-1.485-.146l-2.484 1.65a16.784 16.784 0 0 0-3.079-1.27L24.291.941A1.175 1.175 0 0 0 23.137 0h-6.274c-.561 0-1.044.394-1.154.942l-.585 2.916a16.79 16.79 0 0 0-3.08 1.27l-2.483-1.65a1.18 1.18 0 0 0-1.485.147L3.64 8.045a1.168 1.168 0 0 0-.147 1.478l1.656 2.475a16.644 16.644 0 0 0-1.275 3.067l-2.927.583c-.55.11-.946.59-.946 1.149v6.25c0 .558.396 1.04.946 1.149l2.928.583c.322 1.064.749 2.09 1.274 3.067L3.493 30.32a1.168 1.168 0 0 0 .147 1.48l4.436 4.42a1.18 1.18 0 0 0 1.485.146l2.433-1.616v-7.356a10.85 10.85 0 0 1-2.974-7.471c0-6.04 4.916-10.938 10.98-10.938s10.98 4.897 10.98 10.938a10.85 10.85 0 0 1-2.974 7.47v7.357l2.433 1.616a1.177 1.177 0 0 0 1.485-.147L36.36 31.8a1.169 1.169 0 0 0 .147-1.479l-1.655-2.474a16.66 16.66 0 0 0 1.274-3.067l2.928-.583c.55-.11.946-.59.946-1.15v-6.25c0-.558-.396-1.039-.946-1.148z"/><path d="M23.725 13.5a.967.967 0 0 0-1.441.696l-.717 4.944h-3.138l-.717-4.944a.967.967 0 0 0-1.441-.695 7.441 7.441 0 0 0-3.724 6.42c0 2.856 1.605 5.41 4.19 6.667l.124.06v12.18c0 .647.526 1.172 1.176 1.172h3.922c.65 0 1.176-.525 1.176-1.172v-12.18l.124-.06c2.584-1.256 4.19-3.81 4.19-6.666a7.442 7.442 0 0 0-3.724-6.421z"/></g></svg>