<svg xmlns:xlink="http://www.w3.org/1999/xlink" xmlns="http://www.w3.org/2000/svg" width="32" height="32" fill="none"><g fill="#F1E478" clip-path="url(#a)"><path d="M7.912 13.994c-2.648-.6-5.319.027-5.727.436a.94.94 0 0 0-.273.664v15.968a.938.938 0 0 0 1.342.846l4.658-2.226V13.994zM30.085 24.74 28.34 4.409a.937.937 0 0 0-.554-.776L19.783.08a.938.938 0 0 0-1.268.556L16.54 6.464a.938.938 0 0 0 .888 1.238h5.485l-1.373 8.527a6.23 6.23 0 0 1 1.765 2.597.938.938 0 0 1-1.767.628 4.387 4.387 0 0 0-4.126-2.909 4.39 4.39 0 0 0-4.114 2.878.938.938 0 0 1-1.762-.64 6.214 6.214 0 0 1 1.306-2.123 10.393 10.393 0 0 0-3.055-2.05v14.747c2.454.482 4.926.635 7.366.455 5.621-.415 10.433-2.641 12.561-4.242a.937.937 0 0 0 .37-.83z"/></g><defs><clipPath id="a"><path fill="#fff" d="M0 0h32v32H0z"/></clipPath></defs></svg>