<svg xmlns:xlink="http://www.w3.org/1999/xlink" xmlns="http://www.w3.org/2000/svg" width="37" height="36" fill="none"><g fill="#F1E478"><path d="M22.88 28.475H6.106V4.417h16.77v1.8h2.253V3.925C25.131 1.767 23.36 0 21.202 0H7.782a3.938 3.938 0 0 0-3.927 3.925v28.148A3.938 3.938 0 0 0 7.782 36h13.42a3.941 3.941 0 0 0 3.929-3.927v-3.64H22.88v.042zm-8.39 5.56a1.797 1.797 0 0 1-1.798-1.798 1.799 1.799 0 1 1 1.798 1.798z"/><path d="M13.06 6.832H8.027V9.9h5.031V6.832zm0 7.855H8.027v3.068h5.031v-3.068zm0 8.222H8.027v3.066h5.031V22.91zm17.858-6.873a6.798 6.798 0 0 0-1.047-2.543l1.804-1.806-1.843-1.837-1.801 1.803a6.765 6.765 0 0 0-2.542-1.047V8.049h-2.607v2.557a6.838 6.838 0 0 0-2.543 1.047L18.54 9.85l-1.843 1.838 1.8 1.806a6.82 6.82 0 0 0-1.043 2.542H14.9v2.606h2.553a6.866 6.866 0 0 0 1.046 2.541l-1.802 1.803 1.843 1.835 1.802-1.8a6.845 6.845 0 0 0 2.543 1.05v2.552h2.608v-2.554a6.834 6.834 0 0 0 2.541-1.047l1.802 1.801 1.843-1.837-1.805-1.803a6.833 6.833 0 0 0 1.048-2.543h2.555v-2.604h-2.56zm-6.73 4.138a2.837 2.837 0 0 1-2.84-2.836 2.838 2.838 0 1 1 5.677 0 2.833 2.833 0 0 1-2.836 2.836z"/></g></svg>