<svg xmlns:xlink="http://www.w3.org/1999/xlink" xmlns="http://www.w3.org/2000/svg" width="40" height="40" fill="none"><g fill="#F1E478"><path d="M10.625 25.938a5.86 5.86 0 1 0 0-11.72 5.86 5.86 0 0 0 0 11.72z"/><path d="M2.422 34.14V40h16.406v-5.86c0-4.522-3.68-8.203-8.203-8.203s-8.203 3.68-8.203 8.204zm25.781-1.171h9.375v2.343h-9.375V32.97zm-4.687 0h2.343v2.343h-2.343V32.97zm4.687 4.687h9.375V40h-9.375v-2.344zm-4.687 0h2.343V40h-2.343v-2.344zm4.687-9.375h9.375v2.344h-9.375v-2.344zm-4.687 0h2.343v2.344h-2.343v-2.344z"/><path d="M18.39 27.062c.534.587.99 1.235 1.383 1.931l3.056-3.055h14.749v-2.344h-15.72l-3.468 3.468zM34.063 0h3.515v21.25h-3.516V0zm-5.86 7.11h3.516v14.14h-3.516V7.11zm-5.859 4.687h3.515v9.453h-3.515v-9.453z"/></g></svg>