<svg xmlns:xlink="http://www.w3.org/1999/xlink" xmlns="http://www.w3.org/2000/svg" width="32" height="32" fill="none"><g fill="#F1E478" clip-path="url(#a)"><path d="M19.297 11.537h-6.595V10.23A3.3 3.3 0 0 1 16 6.932a3.3 3.3 0 0 1 3.297 3.297v1.308zm-8.537 1.876v8.262c0 .823.67 1.492 1.493 1.492h7.494c.823 0 1.492-.669 1.492-1.492v-8.262H10.761zm6.884 4.486h-.706v1.72a.937.937 0 1 1-1.875 0v-1.72h-.707a.938.938 0 0 1 0-1.875h3.288a.937.937 0 1 1 0 1.875z"/><path d="M31.39 5.684 16.329.06a.934.934 0 0 0-.656 0L.609 5.684A.945.945 0 0 0 0 6.562c0 5.276.816 9.891 2.427 13.717 1.305 3.1 3.13 5.693 5.424 7.705 3.935 3.452 7.865 3.987 8.03 4.008a.422.422 0 0 0 .045.004c.023.003.045.003.068.004h.012a1.27 1.27 0 0 0 .096-.006l.017-.002c.165-.021 4.095-.556 8.03-4.008 2.294-2.012 4.12-4.604 5.424-7.705C31.183 16.453 32 11.838 32 6.562a.945.945 0 0 0-.61-.878zm-8.276 15.99a3.371 3.371 0 0 1-3.367 3.368h-7.494a3.371 3.371 0 0 1-3.367-3.367v-9.2c0-.518.419-.938.937-.938h1.005V10.23A5.178 5.178 0 0 1 16 5.057a5.178 5.178 0 0 1 5.172 5.172v1.308h1.005c.518 0 .937.42.937.938v9.2z"/></g><defs><clipPath id="a"><path fill="#fff" d="M0 0h32v32H0z"/></clipPath></defs></svg>