<svg xmlns:xlink="http://www.w3.org/1999/xlink" xmlns="http://www.w3.org/2000/svg" width="37" height="36" fill="none"><g fill="#F1E478" clip-path="url(#a)"><path d="M35.279 4.219h-5.38A5.282 5.282 0 0 0 24.732 0a5.282 5.282 0 0 0-5.167 4.219H1.388a1.054 1.054 0 1 0 0 2.11h18.177a5.282 5.282 0 0 0 5.167 4.218 5.282 5.282 0 0 0 5.167-4.219h5.38a1.054 1.054 0 1 0 0-2.11zm0 12.726H17.172a5.282 5.282 0 0 0-5.167-4.218 5.282 5.282 0 0 0-5.166 4.218h-5.45a1.054 1.054 0 1 0 0 2.11h5.45a5.282 5.282 0 0 0 5.166 4.218 5.282 5.282 0 0 0 5.167-4.218H35.28a1.054 1.054 0 1 0 0-2.11zm0 12.727h-5.38a5.282 5.282 0 0 0-5.167-4.219 5.282 5.282 0 0 0-5.167 4.219H1.388a1.054 1.054 0 1 0 0 2.11h18.177A5.282 5.282 0 0 0 24.732 36a5.282 5.282 0 0 0 5.167-4.219h5.38a1.054 1.054 0 1 0 0-2.11z"/></g><defs><clipPath id="a"><path fill="#fff" d="M.333 0h36v36h-36z"/></clipPath></defs></svg>