<svg xmlns:xlink="http://www.w3.org/1999/xlink" xmlns="http://www.w3.org/2000/svg" width="41" height="40" fill="none"><g fill="#F1E478"><path d="M14.998 8.62h11.298a1.172 1.172 0 0 0 1.135-1.465L26.188.942A1.172 1.172 0 0 0 25.04 0h-8.786c-.559 0-1.04.394-1.15.942l-1.255 6.276a1.171 1.171 0 0 0 1.15 1.402z"/><path d="M31.315 5.02h-1.921l.326 1.629a3.52 3.52 0 0 1-3.425 4.315H14.996a3.503 3.503 0 0 1-2.718-1.287 3.503 3.503 0 0 1-.729-2.919l.348-1.737h-1.92a4.315 4.315 0 0 0-4.31 4.31V35.69A4.315 4.315 0 0 0 9.976 40h21.338a4.315 4.315 0 0 0 4.31-4.31V9.33a4.315 4.315 0 0 0-4.31-4.31zm-18.2 8.704H21.9a1.172 1.172 0 0 1 0 2.343h-8.786a1.172 1.172 0 1 1 0-2.344zm1.171 7.447c0 .309-.125.611-.343.83a1.18 1.18 0 0 1-.829.342 1.18 1.18 0 0 1-.828-.343 1.18 1.18 0 0 1-.343-.829c0-.308.125-.61.343-.828a1.18 1.18 0 0 1 .828-.344c.309 0 .611.126.83.344.217.218.342.52.342.828zm-.343 13.382a1.18 1.18 0 0 1-.828.342 1.18 1.18 0 0 1-.829-.342 1.183 1.183 0 0 1-.344-.83c0-.308.126-.61.344-.828a1.18 1.18 0 0 1 .829-.343c.308 0 .61.125.828.343.218.218.343.52.343.828 0 .31-.125.61-.343.83zm0-6.277c-.218.219-.52.344-.829.344a1.177 1.177 0 0 1-1.172-1.172c0-.309.125-.611.344-.829a1.18 1.18 0 0 1 .828-.343c.309 0 .611.125.83.343.217.218.343.52.343.829 0 .308-.126.61-.344.828zm14.234 6.62H19.39a1.172 1.172 0 1 1 0-2.344h8.786a1.172 1.172 0 0 1 0 2.343zm0-6.277H19.39a1.172 1.172 0 1 1 0-2.343h8.786a1.172 1.172 0 0 1 0 2.343zm0-6.276H19.39a1.172 1.172 0 1 1 0-2.343h8.786a1.172 1.172 0 1 1 0 2.343z"/></g></svg>